<svg width="21" height="19" viewBox="0 0 21 19" fill="none" xmlns="http://www.w3.org/2000/svg">
<ellipse cx="1.5" cy="7.59996" rx="1.5" ry="1.51934" fill="#274857"/>
<ellipse cx="4.5" cy="7.59996" rx="1.5" ry="1.51934" fill="#274857"/>
<ellipse cx="7.5" cy="7.59996" rx="1.5" ry="1.51934" fill="#274857"/>
<ellipse cx="10.5" cy="7.59996" rx="1.5" ry="1.51934" fill="#274857"/>
<ellipse cx="13.5" cy="7.59996" rx="1.5" ry="1.51934" fill="#274857"/>
<ellipse cx="16.5" cy="7.59996" rx="1.5" ry="1.51934" fill="#274857"/>
<ellipse cx="19.5" cy="7.59996" rx="1.5" ry="1.51934" fill="#274857"/>
<path fill-rule="evenodd" clip-rule="evenodd" d="M4.10855 0.323418H2L0 7.41365H21L19 0.323418H17.4752L18.4969 6.47234L18.075 6.54426L17.0413 0.323418H14.4138L15.4563 6.59707L15.0343 6.66899L13.9799 0.323418H12.4321L12.5163 6.63772L12.0884 6.64357L12.0042 0.323418H9.51813L9.4334 6.68067L9.00557 6.67482L9.09022 0.323418H7.54244L6.50035 6.59472L6.07841 6.5228L7.10855 0.323418H4.54244L3.53611 6.37956L3.11417 6.30764L4.10855 0.323418Z" fill="#274857"/>
<path fill-rule="evenodd" clip-rule="evenodd" d="M17.9147 8.42654H18.0854C18.2913 9.01665 18.8469 9.43944 19.5 9.43944C19.6753 9.43944 19.8436 9.40898 20 9.353V18.5554H1V9.35298C1.1564 9.40898 1.3247 9.43944 1.50003 9.43944C2.15314 9.43944 2.70877 9.01665 2.91468 8.42654H3.08535C3.29126 9.01665 3.84689 9.43944 4.5 9.43944C5.15311 9.43944 5.70874 9.01665 5.91465 8.42654H6.08538C6.29129 9.01665 6.84692 9.43944 7.50003 9.43944C8.15315 9.43944 8.70877 9.01665 8.91468 8.42654H9.08538C9.29129 9.01665 9.84692 9.43944 10.5 9.43944C11.1531 9.43944 11.7088 9.01665 11.9147 8.42654H12.0854C12.2913 9.01665 12.8469 9.43944 13.5 9.43944C14.1531 9.43944 14.7088 9.01665 14.9147 8.42654H15.0853C15.2913 9.01665 15.8469 9.43944 16.5 9.43944C17.1531 9.43944 17.7087 9.01665 17.9147 8.42654ZM13 12.4781H9.00003V18.5554H13V12.4781Z" fill="#274857"/>
</svg>
